<?xml version="1.0" encoding="iso-8859-1"?>
<!-- Generator: Adobe Illustrator 19.0.0, SVG Export Plug-In . SVG Version: 6.00 Build 0)  -->
<svg xmlns="http://www.w3.org/2000/svg" xmlns:xlink="http://www.w3.org/1999/xlink" version="1.1" id="Capa_1" x="0px" y="0px" viewBox="0 0 68.422 68.422" style="enable-background:new 0 0 68.422 68.422;" xml:space="preserve" width="512px" height="512px">
<g>
	<path d="M59.571,45.188l-1.414-12.206c-0.078-10.371-6.919-19.511-16.637-22.629V7.308C41.52,3.279,38.242,0,34.212,0   s-7.309,3.278-7.309,7.308v3.045c-9.717,3.118-16.559,12.258-16.637,22.629L8.853,45.185c-1.912,1.501-3.045,3.784-3.045,6.284   v0.479c0,5.963,5.834,5.963,8.03,5.963h8.064c0.935,5.951,5.875,10.511,11.827,10.511s10.892-4.56,11.827-10.511h9.026   c2.196,0,8.031,0,8.031-5.963v-0.479C62.615,48.971,61.482,46.69,59.571,45.188z M33.731,62.422c-2.318,0-4.334-1.442-5.333-3.548   h10.665C38.065,60.98,36.049,62.422,33.731,62.422z M56.615,51.809c-0.405,0.068-1.085,0.103-2.031,0.103H13.839   c-0.946,0-1.625-0.034-2.03-0.103V51.47c0-0.93,0.601-1.55,1.163-1.82l1.489-0.717l1.787-15.426l0.02-0.345   c0-8.451,5.994-15.838,14.252-17.565l2.386-0.499V7.309c0-0.721,0.587-1.308,1.309-1.308c0.721,0,1.308,0.586,1.308,1.308v7.788   l2.386,0.499c8.258,1.727,14.252,9.115,14.252,17.565l1.807,15.772l1.488,0.718c0.562,0.271,1.162,0.891,1.162,1.818v0.34H56.615z" fill="#0F1626"/>
</g>
<g>
</g>
<g>
</g>
<g>
</g>
<g>
</g>
<g>
</g>
<g>
</g>
<g>
</g>
<g>
</g>
<g>
</g>
<g>
</g>
<g>
</g>
<g>
</g>
<g>
</g>
<g>
</g>
<g>
</g>
</svg>
