<?xml version="1.0" encoding="iso-8859-1"?>
<!-- Generator: Adobe Illustrator 19.0.0, SVG Export Plug-In . SVG Version: 6.00 Build 0)  -->
<svg version="1.1" id="Layer_1" xmlns="http://www.w3.org/2000/svg" xmlns:xlink="http://www.w3.org/1999/xlink" x="0px" y="0px"
	 viewBox="0 0 511.999 511.999" style="enable-background:new 0 0 511.999 511.999;" xml:space="preserve">
<path style="fill:#57DEFF;" d="M507.245,26.339c-2.704-6.011-6.611-11.12-11.42-15.629c-5.108-4.206-10.819-7.213-16.83-9.016
	c-6.31-1.803-12.923-2.104-19.233-1.201L324.222,21.53l-135.24,20.737c-11.12,1.503-20.737,7.213-27.35,15.027
	c-6.911,8.113-10.819,18.333-10.819,29.451v294.521c-8.115-6.01-17.13-10.819-27.347-14.124c-10.219-3.606-21.037-5.41-32.759-5.41
	c-24.945,0-47.485,8.414-63.713,21.938c-16.228,13.826-26.447,32.459-26.447,53.195s10.219,39.37,26.447,53.193
	c16.228,13.524,38.768,21.94,63.713,21.94s47.485-8.416,63.713-21.94c16.228-13.824,26.447-32.457,26.447-53.193V194.035
	l143.355-21.938l6.911-1.203l150.267-23.142V321.16c-8.115-6.01-17.13-10.819-27.348-14.124c-10.219-3.606-21.037-5.41-32.759-5.41
	c-24.945,0-47.485,8.414-63.713,21.938c-16.228,13.826-26.447,32.459-26.447,53.195s10.219,39.37,26.447,53.193
	c16.228,13.524,38.768,21.94,63.713,21.94c24.945,0,47.485-8.416,63.713-21.94c16.228-13.824,26.447-32.457,26.447-53.193V45.272
	C511.453,38.662,509.95,32.049,507.245,26.339z"/>
<path style="fill:#4EC9E6;" d="M511.453,45.272v331.489c0,20.737-10.219,39.37-26.447,53.193
	c-16.228,13.524-38.768,21.94-63.713,21.94c-24.945,0-47.485-8.416-63.713-21.94c-16.228-13.824-26.447-32.457-26.447-53.193
	s10.219-39.37,26.447-53.195c16.228-13.524,38.768-21.938,63.713-21.938c11.721,0,22.54,1.803,32.759,5.41
	c10.217,3.306,19.233,8.115,27.348,14.124V147.754l-150.267,23.142l-6.911,1.203V21.532l135.54-21.037
	c6.31-0.903,12.923-0.602,19.233,1.201c6.011,1.803,11.721,4.81,16.83,9.016c4.81,4.509,8.716,9.617,11.42,15.629
	C509.95,32.049,511.453,38.662,511.453,45.272z"/>
<g>
</g>
<g>
</g>
<g>
</g>
<g>
</g>
<g>
</g>
<g>
</g>
<g>
</g>
<g>
</g>
<g>
</g>
<g>
</g>
<g>
</g>
<g>
</g>
<g>
</g>
<g>
</g>
<g>
</g>
</svg>
