<?xml version="1.0" encoding="utf-8"?>
<!-- Generator: Adobe Illustrator 19.0.0, SVG Export Plug-In . SVG Version: 6.00 Build 0)  -->
<svg version="1.1" id="Layer_1" xmlns="http://www.w3.org/2000/svg" xmlns:xlink="http://www.w3.org/1999/xlink" x="0px" y="0px"
	 viewBox="-223 25 512 512" style="enable-background:new -223 25 512 512;" xml:space="preserve">
<style type="text/css">
	.st0{fill:#B3B3B3;}
	.st1{fill:#9AD14B;}
	.st2{fill:#90BC42;}
	.st3{fill:#C0E4F9;}
	.st4{fill:#F7B239;}
	.st5{fill:#E09B2D;}
	.st6{fill:#CCCCCC;}
	.st7{fill:#F95428;}
	.st8{fill:#E54728;}
</style>
<path class="st0" d="M111.7,508.8H-45.7v14.4c0,7.6,6.1,13.7,13.7,13.7H97.9c7.6,0,13.7-6.1,13.7-13.7L111.7,508.8L111.7,508.8z"/>
<path class="st1" d="M133.6,173.6L133.6,173.6l-70.8,7.3l-30.2-34.5l0,0c3-2.6,6.1-5,9.5-7.1c16.1-10.2,27.8-26.1,32.7-44.5
	l8.6-31.7l28-2l20.3,15l-8.6,31.7c-1.8,6.5-2.6,13.2-2.6,19.9c0,12.1,2.9,24.2,8.5,35.1C130.8,166.2,132.4,169.8,133.6,173.6z"/>
<path class="st2" d="M97.6,66.7c0,0-11.3,46.8-27.1,89.8c-1.4,3.7-27.3-4.1-30.2-1.5l-7.7-8.8l0,0c3-2.6,6.1-5,9.5-7.1
	c16.1-10.2,27.8-26.1,32.7-44.5l8.6-31.7L97.6,66.7z"/>
<path class="st3" d="M-17.1,197.5l18.6,15.1l39.7,27.1l-101.6-5.3l2.3-14.7l20.9-21.1C-31.7,193.1-23.1,192.6-17.1,197.5z"/>
<path class="st4" d="M134.9,217.6l-0.6,2H77.1l-23-23c-5.8-5.8-15.3-5.8-21.1,0l-23,23l-8.5-6.9l7.8-29c2.5-9.2,6.7-17.8,12.2-25.3
	c3.2-4.4,6.9-8.4,11-12.1l0,0l37.9,10.2l63.1,17h0C138.3,187.7,138.8,203,134.9,217.6z"/>
<path class="st5" d="M47.6,192.8c2.5-8.8,6.6-17,11.9-24.2c3.2-4.4,6.9-8.4,11-12.1l-37.9-10.2l0,0c-4.1,3.6-7.8,7.7-11,12.1
	c-5.6,7.6-9.7,16.1-12.2,25.3l-7.8,29l8.5,6.9l23-23C37,192.7,42.6,191.4,47.6,192.8z"/>
<path class="st6" d="M163.8,219.6l-35.4,292.7c-0.9,7.1-6.9,12.4-14,12.4H-48.4c-7.1,0-13.2-5.3-14-12.4l-35.4-292.7h206.5h25.6
	H163.8z"/>
<path class="st0" d="M-97.8,219.6l35.4,292.7c0.9,7.1,6.9,12.4,14,12.4H4.1l-14.5-305.1H-97.8L-97.8,219.6z"/>
<path class="st3" d="M77.1,219.6l-52.6,15.9L10,219.6l23-23c5.8-5.8,15.3-5.8,21.1,0L77.1,219.6z"/>
<polygon class="st7" points="108.7,219.6 -23.8,309.7 -97.8,219.6 -58.1,219.6 -0.4,219.6 10,219.6 77.1,219.6 "/>
<path class="st1" d="M134,33.8c4.6,1.2,7.4,6,6.1,10.6l-8.5,31.5l-48.3-13l8.5-31.5c1.2-4.6,6-7.4,10.6-6.1L134,33.8z"/>
<polygon class="st8" points="-97.8,219.6 -32.1,219.6 -23.8,309.7 "/>
<path class="st2" d="M106,35.5c1.2-4.6,6-7.4,10.6-6.1l19.5,5.3c-0.6-0.4-1.3-0.7-2.1-0.9l-31.5-8.5c-4.6-1.2-9.4,1.5-10.6,6.1
	l-8.5,31.5l14.2,3.8L106,35.5z"/>
</svg>
