<?xml version="1.0" encoding="iso-8859-1"?>
<!-- Generator: Adobe Illustrator 19.1.0, SVG Export Plug-In . SVG Version: 6.00 Build 0)  -->
<svg version="1.1" id="Capa_1" xmlns="http://www.w3.org/2000/svg" xmlns:xlink="http://www.w3.org/1999/xlink" x="0px" y="0px"
	 viewBox="0 0 67.695 67.695" style="enable-background:new 0 0 67.695 67.695;" xml:space="preserve">
<g>
	<path style="fill:#FFDD00;" d="M48.291,31.299H35.198c-0.144,1.911-1.722,3.422-3.67,3.422c-1.948,0-3.526-1.511-3.67-3.422h-7.546
		c0.158,4.231,1.409,9.133,3.414,13.316c2.095,4.372,2.549,11.668,0.707,16.152c-0.021,0.051-0.042,0.102-0.062,0.153
		c-0.941,2.361,0.851,4.926,3.393,4.926h13.076c2.542,0,4.333-2.564,3.393-4.926c-0.02-0.051-0.041-0.102-0.062-0.153
		c-1.842-4.484-1.388-11.781,0.707-16.152C46.882,40.431,48.133,35.529,48.291,31.299z"/>
	<path style="fill:#231F20;" d="M31.527,36.57c-3.059,0-5.547-2.488-5.547-5.547v-5.855h-4.375c-4.408,0-7.996-3.587-7.996-7.995
		c0-3.829,2.748-7.066,6.377-7.822C21.432,3.93,26.422,0,32.136,0c3.428,0,6.668,1.382,9.032,3.823
		c3.613,0.013,6.698,2.442,7.642,5.839c3.121,1.125,5.275,4.104,5.275,7.51c0,4.408-3.586,7.995-7.994,7.995h-9.016v5.855
		C37.074,34.081,34.586,36.57,31.527,36.57z M32.136,3.698c-4.378,0-8.152,3.268-8.78,7.601c-0.13,0.9-0.896,1.572-1.806,1.584
		c-2.339,0.031-4.242,1.954-4.242,4.289c0,2.369,1.927,4.297,4.297,4.297h6.224c1.021,0,1.849,0.828,1.849,1.849v7.704
		c0,1.02,0.829,1.849,1.849,1.849c1.02,0,1.849-0.829,1.849-1.849v-7.704c0-1.021,0.828-1.849,1.849-1.849h10.865
		c2.369,0,4.296-1.928,4.296-4.297c0-2.065-1.475-3.837-3.507-4.215c-0.801-0.149-1.41-0.804-1.5-1.613
		c-0.242-2.179-2.065-3.823-4.24-3.823c-0.1,0-0.194,0.019-0.29,0.031l-0.223,0.03c-0.622,0.071-1.242-0.175-1.643-0.658
		C37.29,4.874,34.793,3.698,32.136,3.698z"/>
	<path style="fill:#231F20;" d="M40.839,67.695H27.763c-1.825,0-3.526-0.904-4.553-2.418c-1.012-1.493-1.221-3.377-0.557-5.041
		l0.063-0.155c1.597-3.886,1.293-10.595-0.657-14.667c-2.272-4.739-3.628-10.35-3.628-15.008c0-3.373,0.691-6.031,2.114-8.126
		c0.344-0.507,0.917-0.811,1.53-0.811h5.755c1.021,0,1.849,0.828,1.849,1.849v7.704c0,1.02,0.829,1.849,1.849,1.849
		c1.02,0,1.849-0.829,1.849-1.849v-7.704c0-1.021,0.828-1.849,1.849-1.849h11.304c0.613,0,1.186,0.304,1.53,0.811
		c1.422,2.096,2.113,4.754,2.113,8.126c0,4.659-1.356,10.27-3.627,15.008c-1.95,4.07-2.255,10.779-0.664,14.65l0.069,0.169
		c0.663,1.667,0.455,3.551-0.557,5.043C44.365,66.791,42.662,67.695,40.839,67.695z M23.132,25.167
		c-0.674,1.36-1.004,3.085-1.004,5.239c0,4.132,1.221,9.145,3.265,13.41c2.416,5.043,2.746,12.798,0.75,17.654l-0.055,0.137
		c-0.211,0.529-0.144,1.111,0.184,1.594c0.342,0.506,0.886,0.796,1.492,0.796h13.076c0.605,0,1.15-0.29,1.493-0.795
		c0.327-0.484,0.395-1.066,0.183-1.597l-0.047-0.116c-2.003-4.875-1.673-12.63,0.743-17.672c2.043-4.264,3.264-9.277,3.264-13.41
		c0-2.122-0.338-3.879-1.006-5.239h-8.393v5.855c0,3.059-2.488,5.547-5.547,5.547c-3.059,0-5.547-2.488-5.547-5.547v-5.855H23.132z"
		/>
	<path style="fill:#231F20;" d="M38.615,61.686h-8.629c-0.341,0-0.616-0.276-0.616-0.616c0-0.341,0.276-0.616,0.616-0.616h8.629
		c0.341,0,0.616,0.276,0.616,0.616C39.232,61.41,38.956,61.686,38.615,61.686z"/>
	<path style="fill:#231F20;" d="M25.728,31.64c-0.333,0-0.616-0.283-0.616-0.616c0-0.345,0.283-0.616,0.616-0.616
		c0.344,0,0.616,0.271,0.616,0.616C26.345,31.357,26.073,31.64,25.728,31.64z M22.03,31.64h-1.233c-0.333,0-0.616-0.283-0.616-0.616
		c0-0.345,0.283-0.616,0.616-0.616h1.233c0.344,0,0.616,0.271,0.616,0.616C22.647,31.357,22.375,31.64,22.03,31.64z"/>
	<path style="fill:#231F20;" d="M44.835,31.64h-1.233c-0.333,0-0.616-0.271-0.616-0.616s0.283-0.616,0.616-0.616h1.233
		c0.344,0,0.616,0.271,0.616,0.616S45.179,31.64,44.835,31.64z M41.137,31.64c-0.333,0-0.616-0.271-0.616-0.616
		s0.283-0.616,0.616-0.616c0.344,0,0.616,0.271,0.616,0.616S41.481,31.64,41.137,31.64z M37.439,31.64h-1.233
		c-0.333,0-0.616-0.271-0.616-0.616s0.283-0.616,0.616-0.616h1.233c0.344,0,0.616,0.271,0.616,0.616S37.783,31.64,37.439,31.64z"/>
</g>
<g>
</g>
<g>
</g>
<g>
</g>
<g>
</g>
<g>
</g>
<g>
</g>
<g>
</g>
<g>
</g>
<g>
</g>
<g>
</g>
<g>
</g>
<g>
</g>
<g>
</g>
<g>
</g>
<g>
</g>
</svg>
