<?xml version="1.0" encoding="utf-8"?>
<!-- Generator: Adobe Illustrator 19.0.0, SVG Export Plug-In . SVG Version: 6.00 Build 0)  -->
<svg version="1.1" id="Layer_1" xmlns="http://www.w3.org/2000/svg" xmlns:xlink="http://www.w3.org/1999/xlink" x="0px" y="0px"
	 viewBox="-236 38 486 486" style="enable-background:new -236 38 486 486;" xml:space="preserve">
<style type="text/css">
	.st0{fill:#C3C3C3;}
	.st1{fill:#FFCD00;}
	.st2{fill:#FFDA44;}
	.st3{fill:#EBEBEB;}
</style>
<g>
	<path class="st0" d="M241.7,168c-11.8-33.4-34.6-57-64.3-66.5c-30.7-9.8-64.1-2.7-92.7,18.1l-1.2-30.4L-52.3,75.4v90.5H89.2
		l0.4,3.8c22-26.2,50.9-37.9,75.7-30c17.5,5.6,31.3,20.4,38.8,41.7c8.2,23.3,8,51-0.7,78c-12.7,39.8-41.3,69.4-71.2,76.3
		c-0.3,14-2.2,27.8-5.6,41.2c21.5-1.8,43.1-10.8,62.3-26.3c23.8-19.2,42.4-47.3,52.6-79.1C252.7,236.2,252.8,199.5,241.7,168z"/>
	<path class="st1" d="M132.2,331.6c0-40.4-13.4-79.8-37.8-111.8l-4.8-50.2l-0.4-3.8H-52.3V332l74-74c27.2,27.2,36.2,65.8,26.9,100.5
		c-4.5,17.1-13.5,33.3-26.9,46.7S-7.9,427.5-25,432.1c-8.9,2.4-18.1,3.5-27.3,3.5V504h64.9c34.8-13,64.5-36,86-66.4
		c13.1-18.6,22.5-39.1,28-60.8c3.4-13.4,5.3-27.2,5.6-41.2C132.2,334.3,132.2,332.9,132.2,331.6z"/>
	<path class="st2" d="M-125.5,405.2l73.2-73.2V165.8H-193l-5.2,54c-24.4,32-37.8,71.4-37.8,111.8c0,38.2,11.6,74.9,33.6,106.1
		c21.5,30.4,51.2,53.4,86,66.4h64.1v-68.4C-78.8,435.5-105.3,425.4-125.5,405.2z"/>
	<polygon class="st3" points="-52.3,75.4 -223,58 -227.2,97.8 -186.9,102.1 -193,165.8 -52.3,165.8 	"/>
</g>
<rect x="-52.3" y="222" class="st1" width="111.1" height="235"/>
<rect x="-163.4" y="222" class="st2" width="111.1" height="235"/>
</svg>
