<?xml version="1.0" encoding="utf-8"?>
<!-- Generator: Adobe Illustrator 19.0.0, SVG Export Plug-In . SVG Version: 6.00 Build 0)  -->
<svg version="1.1" id="Capa_1" xmlns="http://www.w3.org/2000/svg" xmlns:xlink="http://www.w3.org/1999/xlink" x="0px" y="0px"
	 viewBox="-223 25 512 512" style="enable-background:new -223 25 512 512;" xml:space="preserve">
<style type="text/css">
	.st0{fill:#2AA9D9;}
</style>
<g>
	<path class="st0" d="M95.4,197.3c9.9,10.6,9.9,20.2-0.1,30.2c-12.8,12.8-38.8,22.6-57.9,25.7l-3.5,0.6l-1.1,3.4
		c-1,3-2.6,5.7-4.8,7.9l-8.8,8.8c-2.2,2.2-4.9,3.8-7.9,4.8l-3.4,1.1l-0.6,3.5c-3,19.1-12.8,45.1-25.7,57.9c-10,10-19.6,10-30.2,0.1
		l-4.1-3.9l-80.8,80.8l99.2,99.2l4.8,4.8l2.1,2.1c11.4,11.4,30.4,11,41.8-0.5l263.2-263.2c11.4-11.4,11-29.5-0.5-40.9l-2.1-2.1
		l-4.8-4.8l-99.2-99.2l-79.5,79.5L95.4,197.3z M165.6,270.7L22.3,414L-8,383.7l143.3-143.3L165.6,270.7z"/>
	<path class="st0" d="M93.9,36.5C82.5,25,64.5,24.6,53.1,36l-263.2,263.2c-11.4,11.4-11.9,30.4-0.5,41.8l6.9,6.9
		c0.9,0.9,1.9,1.7,2.9,2.5c0.3,0.5,0.7,1.1,1.2,1.6l35.8,35.8l82.4-82.4l-4.9-4.1c-5.9-4.9-8-8.2-8.1-12.5c-0.1-5,2.2-10,6.9-14.7
		c12.7-12.7,38.9-20.8,57.9-23l4.3-0.5l0.7-4.3c0.8-4.8,2.6-8.5,5.1-11.1l8.8-8.8c2.4-2.4,6.2-4.1,11.3-5l4.3-0.7l0.5-4.3
		c2.3-19.4,10.4-46,22.9-58.5c4.6-4.6,9.3-6.9,14.3-6.7c4.2,0.1,7.8,2.5,12.8,8.4l4.1,4.9l81.1-81.1L105,47.5
		c-0.5-0.5-1.1-0.9-1.6-1.2c-0.8-1-1.6-2-2.5-2.9L93.9,36.5z"/>
</g>
</svg>
