<?xml version="1.0" encoding="iso-8859-1"?>
<!-- Generator: Adobe Illustrator 19.0.0, SVG Export Plug-In . SVG Version: 6.00 Build 0)  -->
<svg version="1.1" id="Layer_1" xmlns="http://www.w3.org/2000/svg" xmlns:xlink="http://www.w3.org/1999/xlink" x="0px" y="0px"
	 viewBox="0 0 512 512" style="enable-background:new 0 0 512 512;" xml:space="preserve">
<path style="fill:#FFDFB3;" d="M512,222.609c0-27.619-22.468-50.087-50.087-50.087H334.054
	c21.989-51.386,18.391-114.603,18.228-116.87c0-27.619-22.468-50.087-50.087-50.087s-50.087,22.468-50.087,50.087
	c0,44.071-26.75,84.75-66.554,101.222l-40.891,16.913c-0.112,0.047-0.204,0.12-0.315,0.169v297.956
	c1.843,0.701,3.823,1.131,5.914,1.131H361.74c27.619,0,50.087-22.468,50.087-50.087c0-6.511-1.25-12.739-3.522-18.451
	c21.249-5.799,36.912-25.272,36.912-48.332c0-6.511-1.25-12.739-3.522-18.451c21.25-5.799,36.913-25.272,36.913-48.332
	c0-6.511-1.25-12.739-3.522-18.451C496.337,265.141,512,245.669,512,222.609z"/>
<path style="fill:#FFCC99;" d="M461.913,172.522h-17.044L145.225,472.166c1.595,0.521,3.267,0.877,5.035,0.877h211.478
	c27.619,0,50.087-22.468,50.087-50.087c0-6.511-1.25-12.739-3.522-18.451c21.25-5.799,36.913-25.272,36.913-48.332
	c0-6.511-1.25-12.739-3.522-18.451c21.25-5.799,36.913-25.272,36.913-48.332c0-6.511-1.25-12.739-3.522-18.451
	c21.25-5.799,36.913-25.272,36.913-48.332C512,194.99,489.532,172.522,461.913,172.522z"/>
<path style="fill:#3ABBE6;" d="M150.261,506.435H16.696C7.479,506.435,0,498.962,0,489.739V155.826
	c0-9.223,7.479-16.696,16.696-16.696h133.565c9.217,0,16.696,7.473,16.696,16.696v333.913
	C166.957,498.962,159.478,506.435,150.261,506.435z"/>
<path style="fill:#33A6CC;" d="M150.261,139.13h-67.13v367.304h67.13c9.217,0,16.696-7.473,16.696-16.696V155.826
	C166.957,146.603,159.478,139.13,150.261,139.13z"/>
<path style="fill:#D7EBFF;" d="M83.48,439.652c-9.212,0-16.696-7.484-16.696-16.696s7.484-16.696,16.696-16.696
	s16.696,7.484,16.696,16.696S92.692,439.652,83.48,439.652z"/>
<path style="fill:#BDDEFF;" d="M83.48,406.261c-0.119,0-0.232,0.032-0.351,0.036v33.321c0.119,0.002,0.232,0.036,0.351,0.036
	c9.212,0,16.696-7.484,16.696-16.696C100.176,413.746,92.693,406.261,83.48,406.261z"/>
<g>
</g>
<g>
</g>
<g>
</g>
<g>
</g>
<g>
</g>
<g>
</g>
<g>
</g>
<g>
</g>
<g>
</g>
<g>
</g>
<g>
</g>
<g>
</g>
<g>
</g>
<g>
</g>
<g>
</g>
</svg>
