<?xml version="1.0" encoding="utf-8"?>
<!-- Generator: Adobe Illustrator 19.0.0, SVG Export Plug-In . SVG Version: 6.00 Build 0)  -->
<svg version="1.1" id="Capa_1" xmlns="http://www.w3.org/2000/svg" xmlns:xlink="http://www.w3.org/1999/xlink" x="0px" y="0px"
	 viewBox="-223 25 512 512" style="enable-background:new -223 25 512 512;" xml:space="preserve">
<style type="text/css">
	.st0{fill:#2AA9D9;}
</style>
<path class="st0" d="M190.2,222.5h-54v-8.8c17.6-13,29-33.9,29-57.4c0-34.8-25-63.9-58.1-70.1C97.6,50.7,65.3,25,27.1,25
	c-21.1,0-41.4,8.2-56.7,22.4c-5.4-1.4-11.1-2.2-16.7-2.2c-26.9,0-50.4,16.3-60.6,39.8c-1.4-0.1-2.8-0.1-4.2-0.1
	c-39.4,0-71.4,32-71.4,71.4c0,21.7,9.7,41.1,25,54.2v295.2c0,17.2,14.1,31.2,31.2,31.2h231.4c17.2,0,31.2-14.1,31.2-31.2v-45.8h54
	c32.2,0,58.3-26.2,58.3-58.3V280.8C248.6,248.7,222.4,222.5,190.2,222.5z M93.9,188.1H-88.9v63.6c0,10.9-8.9,19.8-19.8,19.8
	s-19.8-8.9-19.8-19.8V183c-8.7-5.7-14.5-15.5-14.5-26.7c0-17.5,14.3-31.8,31.8-31.8c3.9,0,7.8,0.7,11.5,2.1
	c5.9,2.3,12.5,1.6,17.8-1.8s8.7-9.1,9.1-15.4c0.9-13.9,12.5-24.7,26.4-24.7c4.5,0,8.8,1.1,12.8,3.3c8.7,4.8,19.7,2.4,25.5-5.7
	c8.3-11.4,21.1-17.9,35.1-17.9c23.2,0,42.3,18.1,43.4,41.3c0.3,5.3,2.7,10.3,6.6,13.8c4,3.5,9.2,5.3,14.5,4.9
	c0.9-0.1,1.6-0.1,2.3-0.1c17.5,0,31.8,14.3,31.8,31.8S111.4,188.1,93.9,188.1z M194.4,401.6c0,2.2-1.9,4.2-4.2,4.2h-54V276.7h54
	c2.2,0,4.2,1.9,4.2,4.2V401.6z"/>
</svg>
