<?xml version="1.0" encoding="iso-8859-1"?>
<!-- Generator: Adobe Illustrator 19.0.0, SVG Export Plug-In . SVG Version: 6.00 Build 0)  -->
<svg version="1.1" id="Layer_1" xmlns="http://www.w3.org/2000/svg" xmlns:xlink="http://www.w3.org/1999/xlink" x="0px" y="0px"
	 viewBox="0 0 512 512" style="enable-background:new 0 0 512 512;" xml:space="preserve">
<path style="fill:#E4EAF5;" d="M370.502,0H141.499c-18.033,0-32.139,15.541-30.399,33.49l43.719,450.749h202.365L400.903,33.49
	C402.643,15.541,388.535,0,370.502,0z"/>
<polygon style="fill:#FFD782;" points="156.863,189.372 182.77,456.479 329.231,456.479 355.138,189.372 "/>
<path style="opacity:0.2;fill:#171D26;enable-background:new    ;" d="M211.948,0h-70.45c-18.033,0-32.139,15.541-30.399,33.49
	l43.718,450.748h70.45L181.55,33.49C179.809,15.541,193.916,0,211.948,0z"/>
<path style="fill:#B9E578;" d="M46.874,456.478L46.874,456.478c0,30.663,24.857,55.521,55.521,55.521h307.212
	c30.663,0,55.521-24.857,55.521-55.521l0,0H46.874z"/>
<path style="opacity:0.2;fill:#171D26;enable-background:new    ;" d="M105.582,456.478L105.582,456.478H46.874l0,0
	c0,30.663,24.857,55.522,55.521,55.522h58.709C130.441,512,105.582,487.143,105.582,456.478z"/>
<g>
</g>
<g>
</g>
<g>
</g>
<g>
</g>
<g>
</g>
<g>
</g>
<g>
</g>
<g>
</g>
<g>
</g>
<g>
</g>
<g>
</g>
<g>
</g>
<g>
</g>
<g>
</g>
<g>
</g>
</svg>
