<?xml version="1.0" encoding="iso-8859-1"?>
<!-- Generator: Adobe Illustrator 19.0.0, SVG Export Plug-In . SVG Version: 6.00 Build 0)  -->
<svg version="1.1" id="Layer_1" xmlns="http://www.w3.org/2000/svg" xmlns:xlink="http://www.w3.org/1999/xlink" x="0px" y="0px"
	 viewBox="0 0 512.001 512.001" style="enable-background:new 0 0 512.001 512.001;" xml:space="preserve">
<path style="fill:#ECEEF0;" d="M254.215,352.898L105.248,119.87c-8.483-13.271,1.047-30.674,16.797-30.674h264.343
	c15.75,0,25.28,17.403,16.797,30.674L254.215,352.898z"/>
<g>
	<path style="fill:#BAD8E8;" d="M254.215,509.129c-4.895,0-8.861-3.967-8.861-8.861V303.892c0-4.895,3.967-8.861,8.861-8.861
		c4.895,0,8.862,3.967,8.862,8.861v196.375C263.078,505.162,259.111,509.129,254.215,509.129z"/>
	<path style="fill:#BAD8E8;" d="M338.499,512.001H169.933c-4.895,0-8.861-3.967-8.861-8.862s3.967-8.861,8.861-8.861h168.565
		c4.895,0,8.861,3.967,8.861,8.861C347.36,508.034,343.393,512.001,338.499,512.001z"/>
</g>
<circle style="fill:#71CA57;" cx="299.29" cy="182.111" r="40.04"/>
<path style="fill:#00A443;" d="M309.097,220.929c-24.994,6.416-49.849-12.557-49.849-38.826c0-26.255,24.856-45.228,49.849-38.813
	c-17.38,4.371-30.235,20.086-30.235,38.813C278.862,200.843,291.717,216.557,309.097,220.929z"/>
<path style="fill:#AA815B;" d="M271.932,246.672c-1.475,0-2.969-0.367-4.346-1.145c-4.262-2.402-5.769-7.808-3.364-12.071
	L393.342,4.509c2.404-4.262,7.808-5.768,12.071-3.364c4.263,2.403,5.77,7.808,3.365,12.071l-129.12,228.947
	C278.03,245.05,275.026,246.672,271.932,246.672z"/>
<path style="fill:#BAD8E8;" d="M305.79,272.22l-51.574,80.675L108.803,125.437c-10.02-15.68,1.241-36.238,19.851-36.238h35.162
	C178.503,170.749,232.653,238.582,305.79,272.22z"/>
<g>
</g>
<g>
</g>
<g>
</g>
<g>
</g>
<g>
</g>
<g>
</g>
<g>
</g>
<g>
</g>
<g>
</g>
<g>
</g>
<g>
</g>
<g>
</g>
<g>
</g>
<g>
</g>
<g>
</g>
</svg>
